{
  "accessors": [
    {
      "bufferView": 2,
      "componentType": 5126,
      "count": 65532,
      "max": [
        3.7938079833984375,
        -2.4506239891052246,
        3.933556079864502
      ],
      "min": [
        -5.2287988662719727,
        -17.777591705322266,
        -3.7124979496002197
      ],
      "type": "VEC3"
    },
    {
      "bufferView": 2,
      "byteOffset": 786384,
      "componentType": 5126,
      "count": 65532,
      "max": [
        0.99998599290847778,
        0.99986845254898071,
        0.99999922513961792
      ],
      "min": [
        -0.99999022483825684,
        -0.99997502565383911,
        -0.99994498491287231
      ],
      "type": "VEC3"
    },
    {
      "bufferView": 1,
      "componentType": 5126,
      "count": 65532,
      "max": [
        0.99971300363540649,
        0.99772900342941284
      ],
      "min": [
        0.00018600000475998968,
        0.0003499999875202775
      ],
      "type": "VEC2"
    },
    {
      "bufferView": 0,
      "componentType": 5125,
      "count": 293223,
      "max": [
        65531
      ],
      "min": [
        0
      ],
      "type": "SCALAR"
    },
    {
      "bufferView": 2,
      "byteOffset": 1572768,
      "componentType": 5126,
      "count": 65532,
      "max": [
        3.7938079833984375,
        -2.4530229568481445,
        3.9879710674285889
      ],
      "min": [
        -5.2287988662719727,
        -17.906852722167969,
        -3.7222189903259277
      ],
      "type": "VEC3"
    },
    {
      "bufferView": 2,
      "byteOffset": 2359152,
      "componentType": 5126,
      "count": 65532,
      "max": [
        0.99999666213989258,
        0.99999451637268066,
        0.99999922513961792
      ],
      "min": [
        -0.99999845027923584,
        -0.99997234344482422,
        -0.99998736381530762
      ],
      "type": "VEC3"
    },
    {
      "bufferView": 1,
      "byteOffset": 524256,
      "componentType": 5126,
      "count": 65532,
      "max": [
        0.9989740252494812,
        0.99981999397277832
      ],
      "min": [
        0.00031599999056197703,
        0.00019200000679120421
      ],
      "type": "VEC2"
    },
    {
      "bufferView": 0,
      "byteOffset": 1172892,
      "componentType": 5125,
      "count": 286731,
      "max": [
        65531
      ],
      "min": [
        0
      ],
      "type": "SCALAR"
    },
    {
      "bufferView": 2,
      "byteOffset": 3145536,
      "componentType": 5126,
      "count": 65532,
      "max": [
        3.7919609546661377,
        -2.4466729164123535,
        3.9902091026306152
      ],
      "min": [
        -5.1867032051086426,
        -17.906852722167969,
        -3.717494010925293
      ],
      "type": "VEC3"
    },
    {
      "bufferView": 2,
      "byteOffset": 3931920,
      "componentType": 5126,
      "count": 65532,
      "max": [
        0.99999666213989258,
        0.99981188774108887,
        0.99996614456176758
      ],
      "min": [
        -0.9999350905418396,
        -0.999930739402771,
        -0.99990725517272949
      ],
      "type": "VEC3"
    },
    {
      "bufferView": 1,
      "byteOffset": 1048512,
      "componentType": 5126,
      "count": 65532,
      "max": [
        0.99981099367141724,
        0.9998360276222229
      ],
      "min": [
        0.00017800000205170363,
        0.00017600000137463212
      ],
      "type": "VEC2"
    },
    {
      "bufferView": 0,
      "byteOffset": 2319816,
      "componentType": 5125,
      "count": 257742,
      "max": [
        65531
      ],
      "min": [
        0
      ],
      "type": "SCALAR"
    },
    {
      "bufferView": 2,
      "byteOffset": 4718304,
      "componentType": 5126,
      "count": 58082,
      "max": [
        3.7837851047515869,
        -2.435028076171875,
        3.990333080291748
      ],
      "min": [
        -5.2248921394348145,
        -17.906852722167969,
        -3.7124979496002197
      ],
      "type": "VEC3"
    },
    {
      "bufferView": 2,
      "byteOffset": 5415288,
      "componentType": 5126,
      "count": 58082,
      "max": [
        0.99994248151779175,
        0.99999397993087769,
        0.99999761581420898
      ],
      "min": [
        -0.99998575448989868,
        -0.99997502565383911,
        -0.99998736381530762
      ],
      "type": "VEC3"
    },
    {
      "bufferView": 1,
      "byteOffset": 1572768,
      "componentType": 5126,
      "count": 58082,
      "max": [
        0.99981802701950073,
        0.99980401992797852
      ],
      "min": [
        0.00019700000120792538,
        0.00016199999663513154
      ],
      "type": "VEC2"
    },
    {
      "bufferView": 0,
      "byteOffset": 3350784,
      "componentType": 5125,
      "count": 140193,
      "max": [
        58081
      ],
      "min": [
        0
      ],
      "type": "SCALAR"
    }
  ],
  "asset": {
    "extras": {
      "author": "Geoffrey Marchal (https://sketchfab.com/geoffreymarchal)",
      "license": "CC-BY-NC-4.0 (http://creativecommons.org/licenses/by-nc/4.0/)",
      "source": "https://sketchfab.com/3d-models/victory-cedb9d2fc6614900ad7f050dd5edb403",
      "title": "Victory"
    },
    "generator": "Sketchfab-7.95.0",
    "version": "2.0"
  },
  "bufferViews": [
    {
      "buffer": 0,
      "byteLength": 3911556,
      "byteOffset": 0,
      "name": "floatBufferViews",
      "target": 34963
    },
    {
      "buffer": 0,
      "byteLength": 2037424,
      "byteOffset": 3911556,
      "byteStride": 8,
      "name": "floatBufferViews",
      "target": 34962
    },
    {
      "buffer": 0,
      "byteLength": 6112272,
      "byteOffset": 5948980,
      "byteStride": 12,
      "name": "floatBufferViews",
      "target": 34962
    }
  ],
  "buffers": [
    {
      "byteLength": 12061252,
      "uri": "scene.bin"
    }
  ],
  "images": [
    {
      "uri": "textures/Victory_-_CleanUp_-_LowPoly_baseColor.jpeg"
    }
  ],
  "materials": [
    {
      "doubleSided": true,
      "emissiveFactor": [
        0,
        0,
        0
      ],
      "name": "Victory_-_CleanUp_-_LowPoly",
      "pbrMetallicRoughness": {
        "baseColorFactor": [
          1,
          1,
          1,
          1
        ],
        "baseColorTexture": {
          "index": 0,
          "texCoord": 0
        },
        "metallicFactor": 0,
        "roughnessFactor": 1
      }
    }
  ],
  "meshes": [
    {
      "primitives": [
        {
          "attributes": {
            "NORMAL": 1,
            "POSITION": 0,
            "TEXCOORD_0": 2
          },
          "indices": 3,
          "material": 0,
          "mode": 4
        }
      ]
    },
    {
      "primitives": [
        {
          "attributes": {
            "NORMAL": 5,
            "POSITION": 4,
            "TEXCOORD_0": 6
          },
          "indices": 7,
          "material": 0,
          "mode": 4
        }
      ]
    },
    {
      "primitives": [
        {
          "attributes": {
            "NORMAL": 9,
            "POSITION": 8,
            "TEXCOORD_0": 10
          },
          "indices": 11,
          "material": 0,
          "mode": 4
        }
      ]
    },
    {
      "primitives": [
        {
          "attributes": {
            "NORMAL": 13,
            "POSITION": 12,
            "TEXCOORD_0": 14
          },
          "indices": 15,
          "material": 0,
          "mode": 4
        }
      ]
    }
  ],
  "nodes": [
    {
      "children": [
        1
      ],
      "name": "RootNode (gltf orientation matrix)",
      "rotation": [
        -0.70710678118654746,
        -0,
        -0,
        0.70710678118654757
      ]
    },
    {
      "children": [
        2
      ],
      "matrix": [
        -0.93860119581222534,
        -0.34500411152839661,
        2.7755575615628914e-17,
        0,
        8.3266726846886741e-17,
        -1.1102230246251565e-16,
        -1,
        0,
        0.34500411152839661,
        -0.93860119581222534,
        5.5511151231257827e-16,
        0,
        -1.4371786117553711,
        -10.292680740356445,
        -10.03691291809082,
        1
      ],
      "name": "RootNode (model correction matrix)"
    },
    {
      "children": [
        3,
        4,
        5,
        6
      ],
      "name": "Victory - CleanUp - LowPoly.obj.cleaner.materialmerger.gles"
    },
    {
      "mesh": 0,
      "name": ""
    },
    {
      "mesh": 1,
      "name": ""
    },
    {
      "mesh": 2,
      "name": ""
    },
    {
      "mesh": 3,
      "name": ""
    }
  ],
  "samplers": [
    {
      "magFilter": 9729,
      "minFilter": 9987,
      "wrapS": 10497,
      "wrapT": 10497
    }
  ],
  "scene": 0,
  "scenes": [
    {
      "name": "OSG_Scene",
      "nodes": [
        0
      ]
    }
  ],
  "textures": [
    {
      "sampler": 0,
      "source": 0
    }
  ]
}

